<svg xmlns="http://www.w3.org/2000/svg" xmlns:xlink="http://www.w3.org/1999/xlink" width="98" height="97.999" viewBox="0 0 98 97.999">
  <defs>
    <clipPath id="clip-path">
      <rect id="Rectangle_448070" data-name="Rectangle 448070" width="34.094" height="58.313" fill="none"/>
    </clipPath>
  </defs>
  <g id="Group_1330261" data-name="Group 1330261" transform="translate(-802.781 -1967)">
    <g id="Group_1204180" data-name="Group 1204180" transform="translate(-1 -5.016)">
      <g id="Group_1204143" data-name="Group 1204143" transform="translate(-67.331 1694.852)">
        <g id="Group_1188789" data-name="Group 1188789" transform="translate(871.113 277.164)">
          <path id="Path_1243039" data-name="Path 1243039" d="M41.05,0h0a41.05,41.05,0,0,1,0,82.1h0a41.05,41.05,0,0,1,0-82.1Z" transform="translate(7.951 7.949)" fill="#92d0d5"/>
          <rect id="Rectangle_400907" data-name="Rectangle 400907" width="88.438" height="88.437" rx="44.218" transform="translate(4.782 4.781)" fill="none"/>
          <g id="Group_1098742" data-name="Group 1098742" transform="translate(0)">
            <g id="Rectangle_400898" data-name="Rectangle 400898" transform="translate(0)" fill="none" stroke="#fff" stroke-width="2" opacity="0.859">
              <rect width="98" height="97.999" rx="48.999" stroke="none"/>
              <rect x="1" y="1" width="96" height="95.999" rx="47.999" fill="none"/>
            </g>
            <g id="Rectangle_400907-2" data-name="Rectangle 400907" transform="translate(0)" fill="none" stroke="#0f1f33" stroke-linecap="round" stroke-width="2">
              <rect width="98" height="97.999" rx="48.999" stroke="none"/>
              <rect x="1" y="1" width="96" height="95.999" rx="47.999" fill="none"/>
            </g>
          </g>
        </g>
      </g>
    </g>
    <g id="Group_1335827" data-name="Group 1335827" transform="translate(834.734 1986.843)">
      <g id="Group_1335827-2" data-name="Group 1335827" clip-path="url(#clip-path)">
        <path id="Path_1532853" data-name="Path 1532853" d="M28.012,81.379H2.787A2.761,2.761,0,0,1,.02,78.612L0,56.015a9.185,9.185,0,0,1,2.688-6.53l4.4-4.42c1.772-1.772,3.126-11.806,3.126-15.35a.913.913,0,0,1,.916-.916H19.69a.913.913,0,0,1,.916.916v.1c0,3.544,1.354,13.6,3.146,15.37l4.3,4.28A9.257,9.257,0,0,1,30.779,56l.02,22.6a2.756,2.756,0,0,1-.816,1.971,2.84,2.84,0,0,1-1.971.816M12.005,30.612c-.179,3.524-1.234,13.319-3.623,15.728l-4.4,4.42a7.393,7.393,0,0,0-2.17,5.256l.02,22.6a.956.956,0,0,0,.956.956H28.012a.952.952,0,0,0,.956-.956l-.02-22.6a7.364,7.364,0,0,0-2.19-5.256l-4.3-4.28c-2.449-2.429-3.484-12.443-3.663-15.867Z" transform="translate(0 -23.066)" fill-rule="evenodd"/>
        <path id="Path_1532854" data-name="Path 1532854" d="M53.816,7.626H43.563a3.763,3.763,0,1,1,0-7.526H53.816a.913.913,0,0,1,.916.916V6.73a.923.923,0,0,1-.916.9M43.563,1.912a1.951,1.951,0,1,0,0,3.9H52.9V1.932H43.563Z" transform="translate(-31.876 -0.08)" fill-rule="evenodd"/>
        <path id="Path_1532855" data-name="Path 1532855" d="M111.93,7.545h-5.714a.913.913,0,0,1-.916-.916.9.9,0,0,1,.916-.916h4.8V1.832h-4.8A.913.913,0,0,1,105.3.916.9.9,0,0,1,106.216,0h5.714a.913.913,0,0,1,.916.916V6.63a.926.926,0,0,1-.916.916" transform="translate(-84.336)" fill-rule="evenodd"/>
        <path id="Path_1532856" data-name="Path 1532856" d="M112.644,45.758a2.126,2.126,0,0,1-.5-.06,2.526,2.526,0,0,1-1.672-1.155L101.456,30.11a.912.912,0,0,1,1.553-.956l9,14.434a.764.764,0,0,0,1.075.219.755.755,0,0,0,.2-1.015L105.4,30.11a.912.912,0,0,1,1.553-.956l7.9,12.662a2.576,2.576,0,0,1-.7,3.464,2.622,2.622,0,0,1-1.513.478" transform="translate(-81.149 -23.002)" fill-rule="evenodd"/>
        <path id="Path_1532857" data-name="Path 1532857" d="M45.491,178.807H26.916a.913.913,0,0,1-.916-.916V159.316a.913.913,0,0,1,.916-.916H45.491a.913.913,0,0,1,.916.916v18.575a.913.913,0,0,1-.916.916m-17.659-1.812H44.575V160.252H27.832Z" transform="translate(-20.824 -126.864)" fill-rule="evenodd"/>
        <path id="Path_1532858" data-name="Path 1532858" d="M63.685,193.35a3.647,3.647,0,0,1-3.385-3.862,14.136,14.136,0,0,1,.776-3.942c.7-2.051,1.553-3.046,2.608-3.046s1.911,1,2.608,3.046a14,14,0,0,1,.776,3.942,3.674,3.674,0,0,1-3.384,3.862m0-8.979a5.419,5.419,0,0,0-.976,2.051,12.2,12.2,0,0,0-.577,3.046c0,1.115.717,2.051,1.553,2.051s1.553-.936,1.553-2.051a12.2,12.2,0,0,0-.577-3.046,5.767,5.767,0,0,0-.976-2.051" transform="translate(-48.295 -146.166)" fill-rule="evenodd"/>
        <path id="Path_1532859" data-name="Path 1532859" d="M114.8,13.082h3.823V9.2H114.8Z" transform="translate(-91.945 -7.368)" fill="#a3c7d0" fill-rule="evenodd"/>
        <path id="Path_1532860" data-name="Path 1532860" d="M60.188,13.082V9.2H50.851a1.951,1.951,0,0,0,0,3.9h8Z" transform="translate(-39.165 -7.368)" fill="#8ebac5" fill-rule="evenodd"/>
        <path id="Path_1532861" data-name="Path 1532861" d="M115.892,37.9H114.1l8.123,13.04a.764.764,0,0,0,1.075.219.755.755,0,0,0,.2-1.015Z" transform="translate(-91.384 -30.355)" fill="#8ebac5" fill-rule="evenodd"/>
        <path id="Path_1532862" data-name="Path 1532862" d="M29.665,53.767C27.217,51.338,26.181,41.324,26,37.9H19.193c-.179,3.524-1.234,13.319-3.623,15.728l-4.4,4.42A7.393,7.393,0,0,0,9,63.3l.02,22.6a.956.956,0,0,0,.956.956H35.2a.952.952,0,0,0,.956-.956l-.02-22.6a7.364,7.364,0,0,0-2.19-5.256ZM13.32,61.91H31.9a.913.913,0,0,1,.916.916V81.4a.913.913,0,0,1-.916.916H13.32A.913.913,0,0,1,12.4,81.4V62.826a.913.913,0,0,1,.916-.916" transform="translate(-7.208 -30.355)" fill="#eaf6ff" fill-rule="evenodd"/>
        <path id="Path_1532863" data-name="Path 1532863" d="M72.028,193.951a5.767,5.767,0,0,0-.976-2.051,5.42,5.42,0,0,0-.976,2.051A12.2,12.2,0,0,0,69.5,197c0,1.115.717,2.051,1.553,2.051s1.553-.936,1.553-2.051a12.2,12.2,0,0,0-.577-3.046" transform="translate(-55.663 -153.695)" fill="#fff" fill-rule="evenodd"/>
        <path id="Path_1532864" data-name="Path 1532864" d="M46.19,173.673a14,14,0,0,1,.776,3.942,3.647,3.647,0,0,1-3.385,3.862,3.647,3.647,0,0,1-3.385-3.862,14.136,14.136,0,0,1,.776-3.942c.7-2.051,1.553-3.046,2.608-3.046,1.055.02,1.911,1.015,2.608,3.046m5.754-5.973H35.2v16.743H51.943Z" transform="translate(-28.192 -134.313)" fill="#60b7ff" fill-rule="evenodd"/>
      </g>
    </g>
  </g>
</svg>
